<svg xmlns="http://www.w3.org/2000/svg" data-name="Calque 1" viewBox="0 0 31.18 39.787499999999994" x="0px" y="0px"><path d="M23.05,3.45H8.12a5,5,0,0,0-5,5V23.38a5,5,0,0,0,5,5H23.05a5,5,0,0,0,5-5V8.45A5,5,0,0,0,23.05,3.45Zm3,19.93a3,3,0,0,1-3,3H8.12a3,3,0,0,1-3-3V8.45a3,3,0,0,1,3-3H23.05a3,3,0,0,1,3,3ZM15.59,10.81a5.11,5.11,0,1,0,5.1,5.11A5.11,5.11,0,0,0,15.59,10.81Zm0,8.21a3.11,3.11,0,1,1,3.1-3.1h0A3.1,3.1,0,0,1,15.59,19Zm8.57-10.9a1,1,0,0,1-1,1h-1a1,1,0,1,1,0-2h1A1,1,0,0,1,24.16,8.12Z"/><text x="0" y="46.83" fill="#000000" font-size="5px" font-weight="bold" font-family="'Helvetica Neue', Helvetica, Arial-Unicode, Arial, Sans-serif">Created by Démarque Toi</text><text x="0" y="51.83" fill="#000000" font-size="5px" font-weight="bold" font-family="'Helvetica Neue', Helvetica, Arial-Unicode, Arial, Sans-serif">from the Noun Project</text></svg>